<svg xmlns="http://www.w3.org/2000/svg" data-name="Layer 1" width="430.914" height="559.71" viewBox="0 0 430.914 559.71"><path d="M304.755 154.54q0 4.784-.31 9.49a143.8 143.8 0 0 1-13.47 52.19c-.06.14-.13.27-.19.4-.36.76-.73 1.52-1.11 2.27a142 142 0 0 1-7.65 13.5 144.46 144.46 0 0 1-118.56 66.72l1.43 82.24 18.65-9.82 3.33 6.33-21.84 11.5 2.67 152.74.03 2.04-14.42 1.21.03-.05 4.54-246.18a144.18 144.18 0 0 1-102-44.38c-.91-.94-1.81-1.91-2.69-2.87-.04-.04-.07-.08-.1-.11A144.8 144.8 0 0 1 26.755 211c.14.16.29.31.43.47a144.64 144.64 0 0 1 68.58-186.38c.5-.25 1.01-.49 1.51-.74a144.75 144.75 0 0 1 187.53 56.93c.88 1.48 1.73 2.99 2.55 4.51a143.85 143.85 0 0 1 17.4 68.75" fill="#e5e5e5"/><circle cx="198.285" cy="502.618" r="43.067" fill="#2f2e41"/><path fill="#2f2e41" d="M210.603 532.223h38.584v13.084h-38.584z"/><ellipse cx="249.459" cy="534.403" rx="4.089" ry="10.903" fill="#2f2e41"/><path fill="#2f2e41" d="M201.603 531.223h38.584v13.084h-38.584z"/><ellipse cx="240.459" cy="533.403" rx="4.089" ry="10.903" fill="#2f2e41"/><path d="M214.837 500.166a10.75 10.75 0 0 1-10.34-7.123 1 1 0 0 1 1.897-.637c1.514 4.508 6.698 6.865 11.554 5.254a9.6 9.6 0 0 0 5.573-4.748 8.23 8.23 0 0 0 .485-6.338 1 1 0 0 1 1.896-.637 10.22 10.22 0 0 1-.592 7.869 11.62 11.62 0 0 1-6.732 5.752 11.9 11.9 0 0 1-3.74.608m19.184 5.854a9.572 9.572 0 1 1-17.046 8.717l-.008-.017c-2.403-4.71.917-7.632 5.627-10.035s9.024-3.375 11.427 1.334" fill="#fff"/><ellipse cx="567.226" cy="706.642" rx="7.501" ry="23.892" transform="rotate(-14.461 -295.58 2137.035)" fill="#2f2e41"/><path d="M260.966 451.278H244.58a.773.773 0 0 1-.519-1.345l14.9-13.495h-13.766a.773.773 0 0 1 0-1.545h15.77a.773.773 0 0 1 .52 1.345l-14.9 13.495h14.38a.773.773 0 1 1 0 1.545m20.865-23.955h-16.386a.773.773 0 0 1-.519-1.345l14.9-13.495H266.06a.773.773 0 0 1 0-1.545h15.77a.773.773 0 0 1 .52 1.345l-14.9 13.495h14.38a.773.773 0 1 1 0 1.545m-9.273-26.273h-16.386a.773.773 0 0 1-.518-1.345l14.9-13.495h-13.767a.773.773 0 0 1 0-1.546h15.771a.773.773 0 0 1 .519 1.346l-14.9 13.495h14.381a.773.773 0 0 1 0 1.545" fill="#cbcbcb"/><path d="m386.12 177.377 12.794-10.234c-9.94-1.096-14.024 4.325-15.695 8.615-7.766-3.224-16.219 1.002-16.219 1.002l25.6 9.293a19.37 19.37 0 0 0-6.48-8.676m-367-167L31.913.143C21.974-.953 17.89 4.468 16.219 8.758 8.453 5.534 0 9.76 0 9.76l25.6 9.293a19.37 19.37 0 0 0-6.48-8.676m399 35 12.794-10.234c-9.94-1.096-14.024 4.325-15.695 8.615C407.453 40.534 399 44.76 399 44.76l25.6 9.293a19.37 19.37 0 0 0-6.48-8.676" fill="#3f3d56"/></svg>